<svg xmlns="http://www.w3.org/2000/svg" width="106" height="24" fill="none"><path d="M.2 24h24.285V0H.2v24ZM15.765 1.833c4.293 1.39 7.395 5.412 7.407 10.161.011 4.674-3.029 8.685-7.407 10.166V1.833Zm-3.427-.544c.776 0 1.602.102 2.29.238 0 5.437-5.322 9.912-10.813 9.912l-2.297-.003c.377-5.574 5.044-10.147 10.82-10.147ZM3.817 12.571c5.491 0 10.81 4.47 10.81 9.902-.687.138-1.554.241-2.289.241C6.56 22.706 1.734 18.12 1.516 12.571h2.3ZM32.43 14.11v-1.513h5.054v-1.928h-5.055V7.86h5.377V5.937h-7.444v8.085c0 2.043.88 3.443 2.948 3.73.042.01.081.018.12.018h.038c.211.023.429.04.655.04h3.828v-1.922h-3.81c-.66 0-1.71-.32-1.71-1.778ZM39.42 11.547v6.265h2.067V5.933H39.42v5.614ZM47.421 8.952c-2.616 0-4.572 1.78-4.572 4.552v.07c0 2.704 1.888 4.45 4.625 4.45 1.317 0 2.547-.36 3.674-1.54l-1.247-1.2c-.658.651-1.3.993-2.357.993-1.54 0-2.563-.89-2.633-2.26h6.79c.035-.342.035-.72.035-.72 0-2.412-1.715-4.345-4.315-4.345Zm-2.458 3.628c.087-1.045 1.16-1.883 2.46-1.883 1.213 0 2.2.856 2.2 1.883h-4.66ZM57.55 10.783c.936 0 1.629.342 2.217.942l1.282-1.32c-1.004-1.06-2.201-1.489-3.5-1.489-2.632 0-4.746 1.935-4.746 4.57 0 2.637 2.113 4.572 4.747 4.572 1.3 0 2.495-.43 3.499-1.49l-1.282-1.319c-.588.6-1.281.941-2.217.941-1.524 0-2.686-1.146-2.686-2.705.002-1.555 1.162-2.702 2.686-2.702ZM64.406 14.112h-.002v-3.031h1.883V9.223h-1.88V5.935h-2.069v8.299h.007c.06 1.93.947 3.244 2.944 3.521.041.01.081.018.12.018h.037c.212.023.43.04.655.04h.22l.008-1.922h-.21c-.66 0-1.713-.322-1.713-1.779ZM70.08 10.5V9.223h-2.052V17.812h2.052v-4.516c0-1.414.914-2.301 2.345-2.301.328 0 .622.034.863.085V9.103a4.545 4.545 0 0 0-.62-.051c-1.243 0-2.174.563-2.588 1.448ZM78.347 8.968c-2.639 0-4.743 1.976-4.743 4.55 0 2.572 2.104 4.549 4.743 4.549 2.621 0 4.742-1.977 4.742-4.55 0-2.573-2.12-4.549-4.742-4.549Zm0 7.241c-1.534 0-2.689-1.175-2.689-2.691 0-1.518 1.155-2.694 2.69-2.694 1.517 0 2.689 1.176 2.689 2.694 0 1.515-1.172 2.691-2.69 2.691ZM84.362 11.341v6.47h2.072V5.934h-2.072v5.407ZM93.896 14.216c0 1.363-.81 1.942-1.898 1.942-1.087 0-1.896-.58-1.896-1.925v-5.01h-2.088v5.181c0 2.454 1.81 3.63 3.968 3.63 2.172 0 4-1.192 4-3.68V9.222h-2.086v4.992ZM103.812 15.065l-1.305-1.804 1.616-2.174 1.384-1.864h-2.258l-1.88 2.573-1.898-2.573h-2.24l1.284 1.737 1.715 2.318-1.796 2.475-1.498 2.058h2.226l2.207-3.034 2.207 3.034h2.224l-1.988-2.746Z" fill="#041E50"/></svg>