<svg width="22" height="22" fill="none" xmlns="http://www.w3.org/2000/svg"><path d="M5.82 18.25h-.004a4.251 4.251 0 0 1 8.368 0H5.821ZM13.248 3.75h.002c-.003 3.031-.04 5.654-.48 7.567-.237 1.027-.572 1.76-1.008 2.23-.408.441-.953.703-1.762.703-.81 0-1.354-.261-1.762-.703-.436-.47-.77-1.203-1.007-2.23-.44-1.913-.478-4.536-.48-7.567H13.247Z" stroke="#041E50" stroke-width="1.5"/><path d="M13 11h1.5c.828 0 1.5-.768 1.5-1.714V6.714C16 5.768 15.328 5 14.5 5h-1.125" stroke="#041E50" stroke-width="1.5"/></svg>