<svg width="22" height="22" fill="none" xmlns="http://www.w3.org/2000/svg"><circle cx="11" cy="11" r="7" stroke="#C92C25"/><path d="M6 12.835v-2.764h.815v.346c.114-.242.416-.406.788-.406.675 0 1.048.433 1.048 1.146v1.678h-.815v-1.58c0-.312-.168-.515-.492-.515-.307 0-.529.225-.529.543v1.553H6ZM9.055 11.47v-.022c0-.883.632-1.448 1.48-1.448.842 0 1.398.625 1.398 1.404 0 0 0 .137-.011.263H9.87c.017.33.292.538.718.538.281 0 .476-.088.66-.269l.474.46a1.535 1.535 0 0 1-1.171.505c-.886 0-1.496-.565-1.496-1.431Zm.826-.335h1.236c0-.252-.264-.455-.583-.455-.35 0-.631.197-.653.455ZM13.106 13l-1.117-2.929h.799l.48 1.317.729-1.3.723 1.3.486-1.317H16L14.882 13l-.885-1.585-.89 1.585Z" fill="#C92C25"/></svg>