<svg width="128" height="128" viewBox="0 0 128 128" fill="none" xmlns="http://www.w3.org/2000/svg">
<circle cx="64" cy="64" r="61" stroke="#041E50" stroke-width="6"/>
<path d="M92 81.724C92 82.732 91.7757 83.768 91.2989 84.776C90.8222 85.784 90.2053 86.736 89.3921 87.632C88.018 89.144 86.5038 90.236 84.7932 90.936C83.1107 91.636 81.2879 92 79.325 92C76.4647 92 73.4081 91.328 70.1833 89.956C66.9584 88.584 63.7336 86.736 60.5368 84.412C57.312 82.06 54.2554 79.456 51.339 76.572C48.4507 73.66 45.8428 70.608 43.5153 67.416C41.2158 64.224 39.365 61.032 38.019 57.868C36.673 54.676 36 51.624 36 48.712C36 46.808 36.3365 44.988 37.0095 43.308C37.6825 41.6 38.7481 40.032 40.2344 38.632C42.029 36.868 43.992 36 46.0671 36C46.8523 36 47.6375 36.168 48.3385 36.504C49.0676 36.84 49.7126 37.344 50.2173 38.072L56.7231 47.228C57.2278 47.928 57.5924 48.572 57.8448 49.188C58.0971 49.776 58.2374 50.364 58.2374 50.896C58.2374 51.568 58.0411 52.24 57.6485 52.884C57.2839 53.528 56.7511 54.2 56.0781 54.872L53.9469 57.084C53.6385 57.392 53.4982 57.756 53.4982 58.204C53.4982 58.428 53.5263 58.624 53.5824 58.848C53.6665 59.072 53.7506 59.24 53.8067 59.408C54.3115 60.332 55.1808 61.536 56.4146 62.992C57.6765 64.448 59.0225 65.932 60.4807 67.416C61.995 68.9 63.4532 70.272 64.9394 71.532C66.3976 72.764 67.6034 73.604 68.5568 74.108C68.697 74.164 68.8653 74.248 69.0616 74.332C69.2859 74.416 69.5103 74.444 69.7626 74.444C70.2394 74.444 70.6039 74.276 70.9124 73.968L73.0436 71.868C73.7446 71.168 74.4176 70.636 75.0626 70.3C75.7076 69.908 76.3525 69.712 77.0536 69.712C77.5864 69.712 78.1472 69.824 78.7641 70.076C79.3811 70.328 80.026 70.692 80.7271 71.168L90.009 77.748C90.7381 78.252 91.2429 78.84 91.5513 79.54C91.8317 80.24 92 80.94 92 81.724Z" stroke="#041E50" stroke-width="6" stroke-miterlimit="10"/>
</svg>
