<svg width="35" height="35" viewBox="0 0 35 35" fill="none" xmlns="http://www.w3.org/2000/svg">
<rect width="35" height="35" fill="white"/>
<path d="M1 34H34V1H1V34ZM22.1515 3.52022C27.9854 5.43071 32.1998 10.9612 32.2157 17.4921C32.2315 23.9191 28.1006 29.4338 22.1515 31.4707V3.52022ZM17.4943 2.77274C18.5491 2.77274 19.6716 2.91275 20.6067 3.10018C20.6067 10.575 13.3747 16.7288 5.91239 16.7288L2.79105 16.7243C3.30375 9.05974 9.64581 2.77274 17.4943 2.77274ZM5.91465 18.2847C13.377 18.2847 20.6044 24.4317 20.6044 31.8998C19.6716 32.0895 18.4926 32.2318 17.4943 32.2318C9.64129 32.2205 3.08466 25.9154 2.78879 18.2847H5.91465Z" fill="#041E50"/>
</svg>
