<svg width="741" height="97" viewBox="0 0 741 97" fill="none" xmlns="http://www.w3.org/2000/svg">
<path d="M59.4025 47.1945C48.9851 72.6839 40.5625 93.6295 40.5625 93.7404C40.6733 93.8512 43.4439 94.0728 46.7686 94.1837L52.7531 94.5161L54.6371 89.5291C55.6345 86.8693 57.851 80.774 59.5133 76.0086L62.6164 67.4752H78.3533H94.0902L97.5258 77.1168C99.5206 82.5472 101.626 88.6425 102.18 90.7481L103.399 94.627H115.036C124.899 94.627 126.562 94.4053 126.118 92.9646C125.786 92.078 117.363 71.0216 107.5 46.1971L89.5465 0.981129H83.8945H78.3533L59.4025 47.1945ZM85.0027 43.4265C87.7733 50.63 90.1006 57.0578 90.1006 57.6119C90.1006 58.166 84.8919 58.6093 78.4641 58.6093C72.0364 58.6093 66.8277 58.2769 66.8277 57.8336C66.8277 55.6171 78.4641 28.7978 79.1291 29.5736C79.5724 30.0169 82.2321 36.223 85.0027 43.4265Z" fill="white"/>
<path d="M542.592 5.0816C532.839 28.2437 506.796 92.6321 506.796 93.5187C506.796 94.1837 509.345 94.627 512.891 94.627H518.876L523.641 81.1065L528.296 67.4752H544.033H559.88L563.205 76.1194C564.978 80.8848 567.084 86.9801 567.749 89.7507L568.968 94.627H580.604C586.921 94.627 592.13 94.2945 592.13 93.8512C592.13 93.2971 583.818 72.2406 573.733 46.9729L555.337 0.981129H549.795C544.587 0.981129 544.254 1.09195 542.592 5.0816ZM550.46 42.3183C553.231 49.5218 555.558 56.1712 555.558 57.0578C555.558 58.2769 553.231 58.6093 543.811 58.6093C534.834 58.6093 532.174 58.2769 532.618 57.1686C536.053 48.5244 543.7 30.1277 544.143 29.4628C544.919 28.1329 544.808 27.9112 550.46 42.3183Z" fill="white"/>
<path d="M0.333008 48.3027V94.627H10.3071H20.2812V72.019V49.411L35.2424 50.0759L50.2036 50.8517V45.5322V40.3235L35.2424 40.6559L20.2812 41.0992V26.3597V11.731L35.6857 12.3959L51.0901 13.1717V7.63054V2.08936H25.7116H0.333008V48.3027Z" fill="white"/>
<path d="M131.104 48.3013V94.6255H141.079H151.053V73.7907C151.053 62.3759 151.385 53.0667 151.939 53.0667C152.383 53.0667 158.145 62.4867 164.795 73.9015L176.875 94.7363L188.954 94.6255C197.599 94.6255 200.812 94.293 200.48 93.2956C200.148 92.6307 193.941 82.5457 186.627 70.9093C179.202 59.3836 173.217 49.6312 173.217 49.2987C173.217 49.0771 174.991 48.1905 177.207 47.5255C187.07 44.2008 193.166 35.1133 193.166 23.4768C193.166 14.5001 191.06 10.2889 184.189 5.7451L179.534 2.64204L155.264 2.30957L131.104 1.9771V48.3013ZM165.903 11.0646C170.668 13.2811 172.442 18.2681 171.888 28.0206C171.555 36.4432 171.444 36.7757 166.9 40.8761C164.241 43.4251 160.805 45.4199 158.367 45.8632C151.053 47.3039 151.053 47.3039 151.053 27.5773V9.84556H157.148C160.473 9.84556 164.352 10.3997 165.903 11.0646Z" fill="white"/>
<path d="M206.465 47.9678V94.0703H227.854H249.354L256.225 90.6348C264.204 86.6451 267.972 82.2122 269.745 74.4546C271.629 66.5861 270.299 59.3826 266.088 54.6172C262.098 50.1842 255.449 46.4162 251.459 46.4162C247.026 46.4162 247.137 44.5322 251.57 43.0915C263.206 39.4344 269.191 31.2334 268.304 20.2619C267.639 12.9475 265.201 9.17955 258.441 5.41155C253.676 2.75179 252.789 2.64096 230.07 2.30849L206.465 1.97602V47.9678ZM243.702 13.6125C247.137 17.048 247.47 17.9346 247.47 24.2515C247.47 32.12 245.696 35.888 240.266 39.656C237.495 41.4292 235.39 41.9833 231.733 41.7616L226.967 41.4292L226.635 25.5814L226.302 9.84449H233.173C239.379 9.84449 240.266 10.177 243.702 13.6125ZM240.155 51.2925C251.792 56.1687 252.9 76.4494 241.928 83.6529C238.604 85.8694 236.609 86.4235 232.398 86.091L226.967 85.7586L226.635 69.135C226.524 60.0475 226.635 51.9574 226.856 51.1816C227.632 49.2976 235.501 49.2976 240.155 51.2925Z" fill="white"/>
<path d="M275.176 48.0786V94.0703H300.998H326.709V88.4183V82.8771L320.613 83.4313C317.289 83.7637 310.418 84.3178 305.431 84.7611L296.232 85.4261V67.4727V49.4085L311.193 50.0734L326.155 50.6275V45.4188V40.2101L311.193 40.6534L296.232 41.0967V26.468V11.7285L311.526 12.2826L326.709 12.8367V7.51719V2.08684H300.998H275.176V48.0786Z" fill="white"/>
<path d="M336.128 48.9664V96.0664L341.115 94.9582C344.329 94.2932 347.875 94.2932 351.089 94.9582L356.076 96.0664V74.4558C356.076 62.2653 356.519 53.1777 357.074 53.5102C357.628 53.8427 363.169 63.041 369.375 73.7909C375.692 84.6516 381.233 94.0716 381.787 94.7365C382.452 95.6231 384.336 95.6231 388.437 94.9582C391.872 94.2932 396.416 94.2932 400.073 94.9582C403.509 95.5123 405.947 95.5123 405.947 94.9582C405.947 94.4041 399.962 84.4299 392.537 72.9043C385.223 61.2678 378.906 51.0721 378.684 50.2963C378.241 49.4097 379.238 48.634 381.455 48.0798C391.318 45.9742 398.189 36.1109 398.189 24.142C398.189 15.0545 395.751 10.289 388.769 5.96693L383.45 2.64223L359.733 2.30976L336.128 1.97729V48.9664ZM373.365 13.6138C377.022 17.2709 377.133 17.7142 377.133 26.1368C377.133 33.562 376.689 35.446 374.473 38.7707C371.259 43.5361 365.164 46.6391 360.177 46.1958L356.63 45.8634L356.298 27.7992L356.076 9.84575H362.836C369.042 9.84575 369.929 10.1782 373.365 13.6138Z" fill="white"/>
<path d="M400.959 4.30439C401.735 6.74251 427.003 94.4039 427.003 94.5147C427.003 94.6255 430.327 94.6255 434.539 94.6255L441.964 94.5147L452.935 62.7084C459.031 45.1982 464.35 30.902 464.794 30.902C465.237 30.902 470.446 45.3091 476.208 62.8192L486.847 94.7363L493.718 94.5147L500.479 94.4039L508.015 70.6876C512.115 57.6105 519.097 37.219 523.308 25.3608C527.63 13.5027 531.177 3.4178 531.177 2.97451C531.177 2.42039 528.517 2.08792 525.303 2.08792H519.319L515.772 15.6084C511.118 33.1185 500.257 66.3655 499.26 66.3655C498.816 66.3655 493.718 52.0693 487.845 34.4484L477.317 2.64204L470.667 2.30957L464.129 1.9771L452.492 34.7808C446.064 52.7342 440.634 67.4738 440.302 67.4738C439.969 67.4738 438.085 61.3785 436.09 53.8425C434.095 46.4173 430.217 31.7886 427.446 21.482L422.348 2.64204H411.377C402.178 2.64204 400.516 2.86369 400.959 4.30439Z" fill="white"/>
<path d="M596.562 48.3027V94.627H607.091H617.619L617.841 73.238L618.173 51.8491L630.585 73.238L642.998 94.627H655.299C661.948 94.627 667.49 94.5161 667.49 94.4053C667.49 94.2945 661.062 84.0987 653.193 71.6865L639.008 49.1893L645.768 45.8646C654.856 41.4317 658.845 35.6689 659.51 26.4705C660.064 18.3804 657.626 10.9552 653.304 7.51971C646.987 2.53266 643.995 2.08936 619.725 2.08936H596.562V48.3027ZM633.356 12.0635C637.456 15.2774 639.008 19.9319 638.454 28.0221C637.9 36.7771 634.464 41.9858 627.15 44.7564C618.173 48.1919 618.173 48.3027 617.841 27.8004L617.619 9.84701H624.047C628.923 9.84701 631.361 10.4011 633.356 12.0635Z" fill="white"/>
<path d="M671.923 48.0786V94.0703H697.745H723.456V88.4183V82.8771L717.36 83.4313C714.036 83.7637 707.165 84.3178 702.178 84.7611L692.979 85.4261V67.4727V49.4085L707.94 50.0734L722.902 50.6275V45.4188V40.2101L707.94 40.6534L692.979 41.0967V26.468V11.7285L708.273 12.2826L723.456 12.8367V7.51719V2.08684H697.745H671.923V48.0786Z" fill="white"/>
<path d="M729.552 4.41639C728 7.18697 728.887 11.6199 731.214 12.5065C732.101 12.839 732.766 12.7281 732.766 12.2849C732.433 10.0684 733.098 8.7385 734.539 8.7385C735.979 8.7385 736.644 10.0684 736.312 12.2849C736.09 14.3905 739.637 11.5091 740.191 9.29262C740.856 6.52203 739.082 2.08909 737.198 2.08909C736.534 2.08909 736.866 2.86486 737.753 3.86227C738.75 4.74886 739.526 6.52203 739.526 7.63027C739.526 10.0684 737.42 11.8416 737.198 9.62509C737.088 8.84933 736.977 7.40862 736.866 6.52203C736.866 5.63545 735.647 4.74886 734.206 4.52721C732.876 4.30556 731.99 3.64062 732.322 3.08651C732.766 2.53239 732.544 2.08909 731.879 2.08909C731.214 2.08909 730.217 3.08651 729.552 4.41639ZM731.436 9.51427C730.992 11.3983 730.992 11.3983 730.106 9.51427C729.662 8.51686 729.662 6.74368 730.106 5.63545C730.992 3.86227 730.992 3.86227 731.436 5.63545C731.768 6.74368 731.768 8.51686 731.436 9.51427ZM735.647 6.52203C735.314 7.07615 734.539 7.63027 733.874 7.63027C733.32 7.63027 732.876 7.07615 732.876 6.52203C732.876 5.85709 733.652 5.4138 734.65 5.4138C735.536 5.4138 735.979 5.85709 735.647 6.52203Z" fill="white"/>
</svg>
