<svg width="199" height="34" viewBox="0 0 199 34" fill="none" xmlns="http://www.w3.org/2000/svg">
<path d="M41.6087 14.659C41.314 14.0112 40.898 13.5965 40.4213 13.5619V13.5533H40.3606H33.774H31.1654H27.066H18.382H17.446H17.1946V13.5878C15.938 13.752 14.95 15.0909 14.95 16.7322C14.95 18.3735 15.938 19.7124 17.1946 19.8765V19.911H27.2306C25.9566 24.3165 21.892 27.5385 17.0647 27.5385C12.2373 27.5385 8.17267 24.3165 6.89867 19.911C6.63002 18.9868 6.48266 18.0106 6.48266 16.9913C6.48266 15.782 6.69934 14.6331 7.07201 13.5533C8.502 9.42424 12.4367 6.4441 17.0647 6.4441C20.306 6.4441 23.2007 7.89534 25.142 10.1844H25.194C26.078 11.1087 27.3434 11.6788 28.7993 11.6788C29.406 11.6788 29.9779 11.5665 30.524 11.3852C31.2953 11.1346 31.9887 10.7287 32.552 10.1844H32.6907C32.6733 10.1498 32.656 10.1153 32.6387 10.0894C31.2607 7.00559 28.9813 4.41414 26.1387 2.62602C23.504 0.967484 20.4014 0 17.056 0C16.276 0 15.5219 0.0691159 14.768 0.172775C7.57468 1.13162 1.79403 6.54777 0.346689 13.5619C0.121289 14.6763 0 15.8251 0 17C0 17.9933 0.103937 18.9695 0.268649 19.9196C1.64667 27.8236 8.47602 33.8444 16.77 33.9827C16.8653 33.9827 16.9607 34 17.056 34C25.4713 34 32.448 27.9187 33.8433 19.9196H40.404V19.9024C41.288 19.8419 41.9987 18.4511 41.9987 16.7408C42.016 15.9375 41.86 15.2118 41.6087 14.659Z" fill="#BABABA"/>
<path d="M63.2107 22.8272V19.7068H69.9164V26.5471C69.2924 27.2446 68.3868 27.832 67.2122 28.3337C66.0374 28.8354 64.7036 29.0801 63.2107 29.0801C60.8246 29.0801 58.8545 28.2969 57.3127 26.7307C55.7709 25.1643 55 23.1943 55 20.8327C55 18.4832 55.7832 16.5376 57.3494 14.9836C58.9157 13.4295 60.8736 12.6464 63.223 12.6464C65.6213 12.6464 67.6526 13.5274 69.3167 15.2895L66.7594 17.7001C65.8049 16.6233 64.6179 16.0971 63.1985 16.0971C61.8525 16.0971 60.739 16.5621 59.8579 17.4799C58.9769 18.4099 58.5364 19.5234 58.5364 20.8204C58.5364 22.1787 58.9891 23.3167 59.8824 24.2345C60.7757 25.1522 61.8892 25.6172 63.1985 25.6172C64.6424 25.6172 65.8294 25.2867 66.7349 24.6138V22.815H63.2107V22.8272Z" fill="#BABABA"/>
<path d="M79.7791 28.8351H76.2794V22.8269L70.3569 13.0621L70.4916 12.8909H74.2237L78.1149 19.572L81.9327 12.8909H85.5792L85.6894 13.0621L79.7791 22.8024V28.8351Z" fill="#BABABA"/>
<path d="M90.8042 28.8354H87.3047V12.6464H87.5249L95.8336 20.2453L104.167 12.6464H104.362V28.8354H100.863V20.0863L95.9314 24.6015H95.7112L90.7799 20.0863V28.8354H90.8042Z" fill="#BABABA"/>
<path d="M114.666 28.8354H111.167V12.6464H111.387L119.695 20.2453L128.028 12.6464H128.224V28.8354H124.725V20.0863L119.793 24.6015H119.573L114.642 20.0863V28.8354H114.666Z" fill="#BABABA"/>
<path d="M137.928 12.6464H138.124L146.2 28.664L146.09 28.8354H142.505L141.464 26.4859H134.539L133.474 28.8354H129.974L129.84 28.664L137.928 12.6464ZM138.014 18.7892L135.946 23.3656H140.045L138.014 18.7892Z" fill="#BABABA"/>
<path d="M147.301 17.1985C147.301 15.7912 147.778 14.6899 148.72 13.87C149.662 13.0502 150.886 12.6464 152.379 12.6464C154.471 12.6464 156.16 13.4173 157.42 14.9714L154.863 17.382C154.055 16.452 153.199 15.9992 152.306 15.9992C151.877 15.9992 151.51 16.1094 151.229 16.3173C150.947 16.5254 150.8 16.819 150.8 17.1985C150.8 17.4064 150.849 17.5899 150.96 17.749C151.07 17.9081 151.265 18.0917 151.547 18.2752C151.828 18.4587 152.085 18.6178 152.306 18.7402C152.526 18.8625 152.893 19.0461 153.407 19.3032C153.921 19.5601 154.3 19.7558 154.582 19.9027C156.784 21.0407 157.885 22.5458 157.885 24.3936C157.885 25.764 157.408 26.8898 156.442 27.7707C155.475 28.6518 154.178 29.0801 152.526 29.0801C151.253 29.0801 150.115 28.8354 149.124 28.3459C148.133 27.8564 147.313 27.1957 146.677 26.3759L149.234 23.9407C150.164 25.1155 151.265 25.7028 152.55 25.7028C153.101 25.7028 153.541 25.5683 153.872 25.299C154.202 25.0298 154.374 24.6995 154.374 24.3079C154.374 23.696 153.725 23.0475 152.416 22.35C152.257 22.2643 151.706 21.9829 150.739 21.5301C148.451 20.4044 147.301 18.9605 147.301 17.1985Z" fill="#BABABA"/>
<path d="M167.161 28.8353H163.661V16.3296H158.62V12.8789H172.19V16.3296H167.149V28.8353H167.161Z" fill="#BABABA"/>
<path d="M183.949 25.5071V28.8232H174.099V12.8666H183.949V16.1828H177.587V19.6824H182.861V22.8028H177.587V25.4949H183.949V25.5071Z" fill="#BABABA"/>
<path d="M190.018 28.8353H186.519V12.8789H192.711C193.713 12.8789 194.619 13.0747 195.452 13.454C196.284 13.8333 196.981 14.4573 197.531 15.3261C198.094 16.1827 198.364 17.2228 198.364 18.4342C198.364 20.5756 197.544 22.1909 195.892 23.2799L199 28.664L198.938 28.8353H195.354L192.747 24.2955C192.613 24.3078 192.417 24.32 192.16 24.32H190.006V28.8353H190.018ZM192.001 15.9992H190.031V21.1874H191.634C192.6 21.1874 193.384 20.9427 193.971 20.4655C194.559 19.976 194.851 19.3275 194.851 18.4955C194.851 17.6634 194.583 17.0515 194.044 16.6232C193.506 16.1949 192.821 15.9992 192.001 15.9992Z" fill="#BABABA"/>
</svg>
